<svg xmlns="http://www.w3.org/2000/svg" viewBox="0 0 100 100">
  <defs>
    <linearGradient id="grad" x1="0%" y1="0%" x2="100%" y2="100%">
      <stop offset="0%" style="stop-color:#4ade80;stop-opacity:1" />
      <stop offset="100%" style="stop-color:#22c55e;stop-opacity:1" />
    </linearGradient>
  </defs>
  <path d="M50 15c-15 0-28 8-34 20-1-.1-2-.1-3 .1-7 1-13 7-13 15 0 8 6 15 14 16h62c11 0 20-9 20-20 0-9-7-17-15-19-1-12-11-21-23-21-3 0-6 1-8 2-1-2-3-5-5-6-3-4-8-7-13-7z" fill="url(#grad)" />
  <path d="M35 55c0-1.7 1.3-3 3-3s3 1.3 3 3v10c0 1.7-1.3 3-3 3s-3-1.3-3-3V55zm12-5c0-1.7 1.3-3 3-3s3 1.3 3 3v15c0 1.7-1.3 3-3 3s-3-1.3-3-3V50zm12 5c0-1.7 1.3-3 3-3s3 1.3 3 3v10c0 1.7-1.3 3-3 3s-3-1.3-3-3V55z" fill="#fff" opacity="0.8"/>
</svg>
